<?xml version="1.0" standalone="no"?><!DOCTYPE svg PUBLIC "-//W3C//DTD SVG 1.1//EN" "http://www.w3.org/Graphics/SVG/1.1/DTD/svg11.dtd"><svg t="1745310256306" class="icon" viewBox="0 0 1024 1024" version="1.1" xmlns="http://www.w3.org/2000/svg" p-id="17253" width="200" height="200" xmlns:xlink="http://www.w3.org/1999/xlink"><path d="M266.581333 682.752c41.216 0 74.666667 33.450667 74.666667 74.666667v106.581333A74.666667 74.666667 0 0 1 266.581333 938.666667H160A74.666667 74.666667 0 0 1 85.333333 864v-106.581333c0-41.216 33.450667-74.666667 74.666667-74.666667h106.581333z m0 64H160a10.666667 10.666667 0 0 0-10.666667 10.666667v106.581333c0 5.888 4.778667 10.666667 10.666667 10.666667h106.581333a10.666667 10.666667 0 0 0 10.666667-10.666667v-106.581333a10.666667 10.666667 0 0 0-10.666667-10.666667z m149.333334 21.248h490.88a32 32 0 0 1 4.352 63.701333l-4.352 0.298667H415.914667a32 32 0 0 1-4.352-63.701333L415.914667 768h490.88H415.914667z m-149.333334-383.957333c41.216 0 74.666667 33.450667 74.666667 74.666666v106.581334a74.666667 74.666667 0 0 1-74.666667 74.666666H160A74.666667 74.666667 0 0 1 85.333333 565.290667V458.666667c0-41.216 33.450667-74.666667 74.666667-74.666667h106.581333z m0 64H160a10.666667 10.666667 0 0 0-10.666667 10.666666v106.581334c0 5.888 4.778667 10.666667 10.666667 10.666666h106.581333a10.666667 10.666667 0 0 0 10.666667-10.666666V458.666667a10.666667 10.666667 0 0 0-10.666667-10.666667z m149.333334 21.290666h490.88a32 32 0 0 1 4.352 63.701334l-4.352 0.298666H415.914667a32 32 0 0 1-4.352-63.701333L415.914667 469.333333h490.88H415.914667z m-149.333334-384c41.216 0 74.666667 33.450667 74.666667 74.666667v106.581333a74.666667 74.666667 0 0 1-74.666667 74.666667H160A74.666667 74.666667 0 0 1 85.333333 266.581333V160C85.333333 118.784 118.784 85.333333 160 85.333333h106.581333z m0 64H160a10.666667 10.666667 0 0 0-10.666667 10.666667v106.581333c0 5.888 4.778667 10.666667 10.666667 10.666667h106.581333a10.666667 10.666667 0 0 0 10.666667-10.666667V160a10.666667 10.666667 0 0 0-10.666667-10.666667z m149.333334 21.333334h490.88a32 32 0 0 1 4.352 63.701333l-4.352 0.298667H415.914667a32 32 0 0 1-4.352-63.701334L415.914667 170.666667h490.88H415.914667z" p-id="17254" fill="#FFFFFF"></path></svg>